<svg xmlns="http://www.w3.org/2000/svg" width="1079.242" height="760.512" viewBox="0 0 1079.242 760.512">
  <g id="Landing_illustration" data-name="Landing illustration" transform="translate(0 0.003)">
    <path id="Path_2" data-name="Path 2" d="M413.051,236.677H344.225a24.978,24.978,0,0,0-24.956,24.956V336.25c-.88-.053-1.76-.131-2.627-.236A88,88,0,1,1,412.657,234.05C412.8,234.917,412.932,235.8,413.051,236.677Z" transform="translate(-173.9 -160.495)" fill="#f2f2f2"/>
    <path id="Path_3" data-name="Path 3" d="M1206.756,216.495H325.421a27.613,27.613,0,0,0-27.583,27.583V709.044a27.613,27.613,0,0,0,27.583,27.583h881.335a27.613,27.613,0,0,0,27.583-27.583V244.078a27.613,27.613,0,0,0-27.583-27.583Zm24.956,492.549A24.979,24.979,0,0,1,1206.756,734H325.421a24.978,24.978,0,0,1-24.956-24.956V244.078a24.978,24.978,0,0,1,24.956-24.956h881.335a24.979,24.979,0,0,1,24.956,24.956Z" transform="translate(-155.096 -142.94)" fill="#3f3d56"/>
    <path id="Path_4" data-name="Path 4" d="M1146.8,274.492H352.151a1.313,1.313,0,1,1,0-2.627H1146.8a1.313,1.313,0,0,1,0,2.627Z" transform="translate(-138.482 -125.584)" fill="#3f3d56"/>
    <path id="Path_5" data-name="Path 5" d="M523.151,673.252a1.313,1.313,0,0,1-1.313-1.313V239.808a1.313,1.313,0,0,1,2.627,0v432.13a1.313,1.313,0,0,1-1.313,1.313Z" transform="translate(-84.88 -136.044)" fill="#3f3d56"/>
    <path id="Path_6" data-name="Path 6" d="M674.151,673.252a1.313,1.313,0,0,1-1.313-1.313V239.808a1.313,1.313,0,0,1,2.627,0v432.13a1.314,1.314,0,0,1-1.313,1.313Z" transform="translate(-37.547 -136.044)" fill="#3f3d56"/>
    <path id="Path_7" data-name="Path 7" d="M825.151,673.252a1.313,1.313,0,0,1-1.313-1.313V239.808a1.313,1.313,0,0,1,2.627,0v432.13a1.314,1.314,0,0,1-1.313,1.313Z" transform="translate(9.787 -136.044)" fill="#3f3d56"/>
    <path id="Path_8" data-name="Path 8" d="M438.619,393.421H390.625a5.917,5.917,0,0,1-5.911-5.911V330.874a5.917,5.917,0,0,1,5.911-5.911h47.994a5.917,5.917,0,0,1,5.911,5.911V387.51A5.917,5.917,0,0,1,438.619,393.421Z" transform="translate(-127.863 -108.939)" fill="#393939"/>
    <path id="Path_9" data-name="Path 9" d="M490.619,516.421H442.625a5.917,5.917,0,0,1-5.911-5.911V453.874a5.917,5.917,0,0,1,5.911-5.911h47.994a5.917,5.917,0,0,1,5.911,5.911V510.51A5.917,5.917,0,0,1,490.619,516.421Z" transform="translate(-111.563 -70.383)" fill="#393939"/>
    <path id="Path_10" data-name="Path 10" d="M608.619,419.421H560.625a5.917,5.917,0,0,1-5.911-5.911V356.874a5.917,5.917,0,0,1,5.911-5.911h47.994a5.917,5.917,0,0,1,5.911,5.911V413.51A5.917,5.917,0,0,1,608.619,419.421Z" transform="translate(-74.574 -100.789)" fill="#393939"/>
    <path id="Path_11" data-name="Path 11" d="M761.619,372.421H713.625a5.917,5.917,0,0,1-5.911-5.911V309.874a5.917,5.917,0,0,1,5.911-5.911h47.994a5.917,5.917,0,0,1,5.911,5.911V366.51a5.917,5.917,0,0,1-5.911,5.911Z" transform="translate(-26.614 -115.522)" fill="#393939"/>
    <path id="Path_12" data-name="Path 12" d="M902.619,372.421H854.625a5.917,5.917,0,0,1-5.911-5.911V309.874a5.917,5.917,0,0,1,5.911-5.911h47.994a5.917,5.917,0,0,1,5.911,5.911V366.51A5.917,5.917,0,0,1,902.619,372.421Z" transform="translate(17.584 -115.522)" fill="#393939"/>
    <path id="Path_13" data-name="Path 13" d="M967.619,384.421H919.625a5.917,5.917,0,0,1-5.91-5.911V321.874a5.917,5.917,0,0,1,5.911-5.911h47.994a5.917,5.917,0,0,1,5.911,5.911V378.51A5.917,5.917,0,0,1,967.619,384.421Z" transform="translate(37.96 -111.761)" fill="#e6e6e6"/>
    <path id="Path_14" data-name="Path 14" d="M938.619,461.421H890.625a5.917,5.917,0,0,1-5.911-5.911V398.874a5.917,5.917,0,0,1,5.911-5.911h47.994a5.917,5.917,0,0,1,5.911,5.911V455.51A5.917,5.917,0,0,1,938.619,461.421Z" transform="translate(28.869 -87.624)" fill="#e6e6e6"/>
    <path id="Path_15" data-name="Path 15" d="M814.619,445.421H766.625a5.917,5.917,0,0,1-5.911-5.911V382.874a5.917,5.917,0,0,1,5.911-5.911h47.994a5.917,5.917,0,0,1,5.911,5.911V439.51a5.917,5.917,0,0,1-5.911,5.911Z" transform="translate(-10.001 -92.639)" fill="#c6865c"/>
    <path id="Path_16" data-name="Path 16" d="M743.619,461.421H695.625a5.917,5.917,0,0,1-5.911-5.911V398.874a5.917,5.917,0,0,1,5.911-5.911h47.994a5.917,5.917,0,0,1,5.911,5.911V455.51A5.917,5.917,0,0,1,743.619,461.421Z" transform="translate(-32.257 -87.624)" fill="#e6e6e6"/>
    <path id="Path_17" data-name="Path 17" d="M590.619,529.421H542.625a5.917,5.917,0,0,1-5.911-5.911V466.874a5.917,5.917,0,0,1,5.911-5.911h47.994a5.917,5.917,0,0,1,5.911,5.911V523.51A5.917,5.917,0,0,1,590.619,529.421Z" transform="translate(-80.217 -66.308)" fill="#e6e6e6"/>
    <path id="Path_18" data-name="Path 18" d="M405.619,472.421H357.625a5.917,5.917,0,0,1-5.911-5.911V409.874a5.917,5.917,0,0,1,5.911-5.911h47.994a5.917,5.917,0,0,1,5.911,5.911V466.51A5.917,5.917,0,0,1,405.619,472.421Z" transform="translate(-138.208 -84.176)" fill="#c6865c"/>
    <path id="Path_19" data-name="Path 19" d="M508.619,393.421H460.625a5.917,5.917,0,0,1-5.911-5.911V330.874a5.917,5.917,0,0,1,5.911-5.911h47.994a5.917,5.917,0,0,1,5.911,5.911V387.51A5.917,5.917,0,0,1,508.619,393.421Z" transform="translate(-105.921 -108.939)" fill="#e6e6e6"/>
    <path id="Path_20" data-name="Path 20" d="M484.959,260H410.092a5.254,5.254,0,0,1,0-10.508h74.867a5.254,5.254,0,0,1,0,10.508Z" transform="translate(-121.555 -132.596)" fill="#ccc"/>
    <path id="Path_21" data-name="Path 21" d="M645.959,260H571.092a5.254,5.254,0,0,1,0-10.508h74.867a5.254,5.254,0,0,1,0,10.508Z" transform="translate(-71.087 -132.596)" fill="#ccc"/>
    <path id="Path_22" data-name="Path 22" d="M796.959,260H722.092a5.254,5.254,0,1,1,0-10.508h74.867a5.254,5.254,0,0,1,0,10.508Z" transform="translate(-23.754 -132.596)" fill="#ccc"/>
    <path id="Path_23" data-name="Path 23" d="M937.959,260H863.092a5.254,5.254,0,1,1,0-10.508h74.867a5.254,5.254,0,1,1,0,10.508Z" transform="translate(20.444 -132.596)" fill="#ccc"/>
    <path id="Path_24" data-name="Path 24" d="M348.933,562.935a13.208,13.208,0,0,1-11.427-16.722l-33.668-31.341,17.8-4.516,33.107,26.852a13.28,13.28,0,0,1-5.813,25.725Z" transform="translate(-153.215 -50.825)" fill="#ffb8b8"/>
    <path id="Path_25" data-name="Path 25" d="M184.4,581.076h16.1l7.66-62.111H184.4Z" transform="translate(57.803 162.678)" fill="#ffb8b8"/>
    <path id="Path_26" data-name="Path 26" d="M0,0H50.609V19.553H19.554A19.553,19.553,0,0,1,0,0H0Z" transform="translate(289.363 758.707) rotate(179.997)" fill="#2f2e41"/>
    <path id="Path_27" data-name="Path 27" d="M100.345,571.725l15.562,4.143,23.381-58.05L116.322,511.7Z" transform="translate(31.454 160.402)" fill="#ffb8b8"/>
    <path id="Path_28" data-name="Path 28" d="M0,0H50.609V19.553H19.554A19.553,19.553,0,0,1,0,0H0Z" transform="matrix(-0.966, -0.257, 0.257, -0.966, 173.525, 758.709)" fill="#2f2e41"/>
    <path id="Path_29" data-name="Path 29" d="M421.029,786.077H396.458a6.212,6.212,0,0,1-6.208-5.639l-14.917-154.9a4.922,4.922,0,0,0-9.616-.939L322.408,769.344a6.229,6.229,0,0,1-7.487,4.264l-22.858-5.716a6.236,6.236,0,0,1-4.528-7.6c.373-1.458,37.316-145.831,37.639-147.316,8.37-61.69,18.385-78.222,23.765-87.1.445-.735.855-1.411,1.223-2.05.461-.8,3.3-8.727,5.1-13.876a6.291,6.291,0,0,1,3.2-3.911c22.606-11.561,49.055-3.558,56.622-.83a6.15,6.15,0,0,1,3.071,2.384c22.7,34.244,11.561,233.128,9.1,272.65a6.241,6.241,0,0,1-6.223,5.836Z" transform="translate(-158.387 -54.083)" fill="#2f2e41"/>
    <circle id="Ellipse_1" data-name="Ellipse 1" cx="32.26" cy="32.26" r="32.26" transform="translate(166.971 275.123)" fill="#ffb8b8"/>
    <path id="Path_30" data-name="Path 30" d="M347.452,539.267l-.232-.224c-.435-.421-43.417-42.53-37.855-81.467,2.379-16.654,15.854-27.3,38.967-30.775a35.641,35.641,0,0,1,39.4,25.115l22.854,78.131Z" transform="translate(-151.638 -77.139)" fill="#ccc"/>
    <path id="Path_31" data-name="Path 31" d="M330.012,563.149l-30.628-30.434a17.255,17.255,0,0,1-4.571-16.276l14.827-60.313a13.6,13.6,0,1,1,26.254,7.084l-15.609,53.059,25.243,27.106Z" transform="translate(-156.197 -71.07)" fill="#ccc"/>
    <path id="Path_32" data-name="Path 32" d="M460.989,460.575a13.208,13.208,0,0,1-19.549,5.292l-40.887,21.192,1.807-18,36.248-22.433a13.279,13.279,0,0,1,22.382,13.951Z" transform="translate(-122.898 -72.363)" fill="#ffb8b8"/>
    <path id="Path_33" data-name="Path 33" d="M455.158,477.114,415.3,494.338a16.824,16.824,0,0,1-16.388-1.758l-50.685-36.316a13.6,13.6,0,1,1,16.333-21.743l43.461,34.205,34.544-13.365Z" transform="translate(-141.081 -75.502)" fill="#ccc"/>
    <path id="Path_34" data-name="Path 34" d="M363.441,414.4c3.98-4.986,11.415-5.255,16.882-8.544,7.161-4.309,10.121-13.937,7.814-21.969s-9.113-14.292-16.915-17.286-16.483-3.031-24.714-1.584c-12.255,2.155-24.32,7.874-31.795,17.822s-9.376,24.517-2.6,34.954c3.113,4.8,7.919,8.757,9.162,14.339,1.632,7.328-3.509,14.4-9.016,19.5-6.274,5.814-13.472,10.683-18.969,17.236s-9.162,15.507-6.654,23.685c2.1,6.852,8.217,11.9,14.923,14.427s14.01,2.893,21.175,3.033c6.958.136,14.348-.033,20.209-3.785,6.275-4.016,9.625-11.635,9.872-19.081s-2.241-14.74-5.575-21.4c-1.988-3.971-4.3-7.818-5.619-12.058s-1.549-9.05.566-12.954c2.223-4.1,6.721-6.579,11.3-7.479.238-.047.49-.089.753-.126a9.718,9.718,0,0,0,8.319-11.332C362.034,418.887,362.079,416.1,363.441,414.4Z" transform="translate(-158.861 -96.676)" fill="#2f2e41"/>
    <path id="Path_35" data-name="Path 35" d="M488.9,582.123H472.8l-7.66-62.111H488.9Z" transform="translate(145.804 163.006)" fill="#a0616a"/>
    <path id="Path_36" data-name="Path 36" d="M466.879,563.8h31.055V583.35H447.325A19.553,19.553,0,0,1,466.879,563.8Z" transform="translate(140.221 176.731)" fill="#2f2e41"/>
    <path id="Path_37" data-name="Path 37" d="M583.5,566.9l-14.646,6.689-32.776-53.312L557.7,510.4Z" transform="translate(168.042 159.993)" fill="#a0616a"/>
    <path id="Path_38" data-name="Path 38" d="M19.554,0H50.609V19.553H0A19.554,19.554,0,0,1,19.554,0Z" transform="translate(706.733 742.302) rotate(-24.548)" fill="#2f2e41"/>
    <path id="Path_39" data-name="Path 39" d="M730.734,583.429a13.208,13.208,0,0,0,1.052-20.225l18.929-42.95-24.048,4.075L712.379,564.49a13.28,13.28,0,0,0,18.355,18.939Z" transform="translate(-26.085 -47.723)" fill="#a0616a"/>
    <path id="Path_40" data-name="Path 40" d="M678.693,771.612H663.31a5.933,5.933,0,0,1-5.9-5.482l-8.389-224.023a5.91,5.91,0,0,1,6.469-6.311l88.967,9.448a5.912,5.912,0,0,1,5.336,5.771l1.864,98.819a4.586,4.586,0,0,0,.307,1.568l36.495,94.639a5.909,5.909,0,0,1-3.472,7.672L769.4,759.456a5.912,5.912,0,0,1-7.3-2.842L717.272,669.44a5.878,5.878,0,0,1-.531-1.5l-7.659-36.9a4.6,4.6,0,0,0-9.068.411L684.566,766.373a5.909,5.909,0,0,1-5.872,5.239Z" transform="translate(-45.016 -42.86)" fill="#2f2e41"/>
    <circle id="Ellipse_2" data-name="Ellipse 2" cx="32.26" cy="32.26" r="32.26" transform="translate(609.077 259.564)" fill="#a0616a"/>
    <path id="Path_41" data-name="Path 41" d="M709.053,599.537a115.144,115.144,0,0,1-61.566-18.649l-.314-.217.032-.38,12.34-143.714a20.255,20.255,0,0,1,19.175-18.469c15.993-.735,37.474.192,48.974,8.756,17.378,12.943,25.754,32.434,22.98,53.474-5.753,43.632.764,102.489,1.526,109.056l.055.473-.433.2a101.485,101.485,0,0,1-42.77,9.471Z" transform="translate(-45.592 -79.805)" fill="#393939"/>
    <path id="Path_42" data-name="Path 42" d="M732.478,581.718a6.577,6.577,0,0,1-4.834-2.131l-7.057-7.7a6.6,6.6,0,0,1-1.457-6.3l16.091-54.461-24.483-51.414a11.57,11.57,0,0,1,20.634-10.46L764.6,503.163a15.7,15.7,0,0,1,.946,14.708l-27.07,59.979a6.551,6.551,0,0,1-4.947,3.783A6.639,6.639,0,0,1,732.478,581.718Z" transform="translate(-26.018 -71.886)" fill="#393939"/>
    <path id="Path_43" data-name="Path 43" d="M555.195,475.173a13.208,13.208,0,0,0,19.7-4.7l46.547,6.037-10.7-21.92-42.562-2.372a13.28,13.28,0,0,0-12.988,22.954Z" transform="translate(-76.124 -69.373)" fill="#a0616a"/>
    <path id="Path_44" data-name="Path 44" d="M651.567,497.852a17.646,17.646,0,0,1-2.422-.167l-73.228-10.156a7.278,7.278,0,0,1-5.583-4.087,7.42,7.42,0,0,1-.417-1.089h0a7.308,7.308,0,0,1,.755-5.821l6.06-10.047a7.335,7.335,0,0,1,6.247-3.528h.01l63.829.073,47.671-42.71a12.918,12.918,0,0,1,17.705,18.8l-47.567,52.9a17.553,17.553,0,0,1-13.058,5.824Z" transform="translate(-69.901 -80.082)" fill="#393939"/>
    <path id="Path_45" data-name="Path 45" d="M691.187,422.144c2.948-6.823,5.443-15.909-.212-20.733-3.28-2.8-8-2.8-12.3-3.152-12.107-.981-24.569-6.551-30.487-17.159s-2.613-26.38,8.551-31.166c7.525-3.226,16.152-1.028,24.029,1.205l23.65,6.706c7.027,1.993,14.405,4.19,19.464,9.459,8.068,8.4,7.465,22.607,1.057,32.335s-16.059,19.874-27.107,23.567Z" transform="translate(-46.181 -101.622)" fill="#2f2e41"/>
    <path id="Path_46" data-name="Path 46" d="M1160.449,740.251H190.726a1.564,1.564,0,1,1,0-3.128h969.723a1.564,1.564,0,0,1,0,3.128Z" transform="translate(-189.162 20.258)" fill="#3f3d56"/>
  </g>
</svg>
